# xmcd CD database file
#
# Track frame offsets:
#	150
#	21638
#	43655
#	64663
#	90710
#	114768
#	139768
#	159540
#	190230
#	213813
#	236733
#	250853
#	269903
#
# Disc length: 3995 seconds
#
# Revision: 0
# Processed by: cddbd v1.5.1PL2 Copyright (c) Steve Scherf et al.
# Submitted via: CDex 1.51
#
DISCID=bb0f990d
DTITLE=Various Artist - Parade Respective Tracks Of Buck-Tick
DYEAR=1900
DGENRE=Rock
TTITLE0=清春 - JUST ONE MORE KISS
TTITLE1=J - ICONOCLASM
TTITLE2=BALZAC - MOON LIGHT
TTITLE3=土屋昌巳 - 見えない物を見ようとする誤解　全て誤解だ
TTITLE4=ATTACK HAUS - MY FUCKIN' VALENTINE
TTITLE5=KEN ISHII - Living On The Net (Ken Ishii Remix)
TTITLE6=遠藤ミチロウ - 囁き
TTITLE7=THEATRE BROOK - 六月の沖縄
TTITLE8=MCU - スピード
TTITLE9=RUNAWAY BOYS (kyo and nackie) - MONSTER
TTITLE10=AGE of PUNK - PHYSICAL NEUROSE
TTITLE11=rally - 悪の華
TTITLE12=abingdon boys school - ドレス
EXTD=
EXTT0=
EXTT1=
EXTT2=
EXTT3=
EXTT4=
EXTT5=
EXTT6=
EXTT7=
EXTT8=
EXTT9=
EXTT10=
EXTT11=
EXTT12=
PLAYORDER=
